<mxfile host="app.diagrams.net" modified="2023-06-26T08:34:20.929Z" agent="Mozilla/5.0 (Macintosh; Intel Mac OS X 10_15_7) AppleWebKit/537.36 (KHTML, like Gecko) Chrome/114.0.0.0 Safari/537.36" etag="BkI7sWJgJ8p2VMinLPOF" version="21.5.0" type="github">
  <diagram name="第 1 页" id="YTqjLCqkTZgk73n2kUbU">
    <mxGraphModel dx="1434" dy="803" grid="1" gridSize="10" guides="1" tooltips="1" connect="1" arrows="1" fold="1" page="1" pageScale="1" pageWidth="2339" pageHeight="3300" background="none" math="0" shadow="0">
      <root>
        <mxCell id="0" />
        <mxCell id="1" parent="0" />
        <mxCell id="mCj7lZmTwDm9WnsvrkNn-11" style="edgeStyle=orthogonalEdgeStyle;rounded=0;orthogonalLoop=1;jettySize=auto;html=1;exitX=1;exitY=0.5;exitDx=0;exitDy=0;entryX=0;entryY=0.115;entryDx=0;entryDy=0;entryPerimeter=0;" edge="1" parent="1" source="mCj7lZmTwDm9WnsvrkNn-1" target="mCj7lZmTwDm9WnsvrkNn-10">
          <mxGeometry relative="1" as="geometry" />
        </mxCell>
        <mxCell id="mCj7lZmTwDm9WnsvrkNn-1" value="静态资源服务" style="rounded=0;whiteSpace=wrap;html=1;" vertex="1" parent="1">
          <mxGeometry x="1110" y="140" width="30" height="110" as="geometry" />
        </mxCell>
        <mxCell id="mCj7lZmTwDm9WnsvrkNn-2" value="后端服务" style="rounded=0;whiteSpace=wrap;html=1;" vertex="1" parent="1">
          <mxGeometry x="1110" y="310" width="30" height="90" as="geometry" />
        </mxCell>
        <mxCell id="mCj7lZmTwDm9WnsvrkNn-4" style="edgeStyle=orthogonalEdgeStyle;rounded=0;orthogonalLoop=1;jettySize=auto;html=1;exitX=0.5;exitY=0;exitDx=0;exitDy=0;" edge="1" parent="1" source="mCj7lZmTwDm9WnsvrkNn-3" target="mCj7lZmTwDm9WnsvrkNn-2">
          <mxGeometry relative="1" as="geometry" />
        </mxCell>
        <mxCell id="mCj7lZmTwDm9WnsvrkNn-15" style="edgeStyle=orthogonalEdgeStyle;rounded=0;orthogonalLoop=1;jettySize=auto;html=1;exitX=1;exitY=0.5;exitDx=0;exitDy=0;entryX=-0.025;entryY=0.863;entryDx=0;entryDy=0;entryPerimeter=0;" edge="1" parent="1" source="mCj7lZmTwDm9WnsvrkNn-3" target="mCj7lZmTwDm9WnsvrkNn-10">
          <mxGeometry relative="1" as="geometry" />
        </mxCell>
        <mxCell id="mCj7lZmTwDm9WnsvrkNn-3" value="node中间层" style="rounded=0;whiteSpace=wrap;html=1;" vertex="1" parent="1">
          <mxGeometry x="1110" y="495" width="30" height="120" as="geometry" />
        </mxCell>
        <mxCell id="mCj7lZmTwDm9WnsvrkNn-5" value="中间层访问" style="text;html=1;align=center;verticalAlign=middle;resizable=0;points=[];autosize=1;strokeColor=none;fillColor=none;" vertex="1" parent="1">
          <mxGeometry x="1120" y="440" width="80" height="30" as="geometry" />
        </mxCell>
        <mxCell id="mCj7lZmTwDm9WnsvrkNn-18" style="edgeStyle=orthogonalEdgeStyle;rounded=0;orthogonalLoop=1;jettySize=auto;html=1;exitX=0.5;exitY=0;exitDx=0;exitDy=0;entryX=0.5;entryY=1;entryDx=0;entryDy=0;" edge="1" parent="1" source="mCj7lZmTwDm9WnsvrkNn-19" target="mCj7lZmTwDm9WnsvrkNn-7">
          <mxGeometry relative="1" as="geometry" />
        </mxCell>
        <mxCell id="mCj7lZmTwDm9WnsvrkNn-6" value="代码仓库" style="rounded=0;whiteSpace=wrap;html=1;" vertex="1" parent="1">
          <mxGeometry x="960" y="400" width="30" height="80" as="geometry" />
        </mxCell>
        <mxCell id="mCj7lZmTwDm9WnsvrkNn-22" style="edgeStyle=orthogonalEdgeStyle;rounded=0;orthogonalLoop=1;jettySize=auto;html=1;exitX=1;exitY=0.5;exitDx=0;exitDy=0;entryX=0;entryY=0.5;entryDx=0;entryDy=0;" edge="1" parent="1" source="mCj7lZmTwDm9WnsvrkNn-7" target="mCj7lZmTwDm9WnsvrkNn-3">
          <mxGeometry relative="1" as="geometry">
            <Array as="points">
              <mxPoint x="1040" y="270" />
              <mxPoint x="1040" y="555" />
            </Array>
          </mxGeometry>
        </mxCell>
        <mxCell id="mCj7lZmTwDm9WnsvrkNn-41" style="edgeStyle=orthogonalEdgeStyle;rounded=0;orthogonalLoop=1;jettySize=auto;html=1;exitX=1;exitY=0.5;exitDx=0;exitDy=0;entryX=0.971;entryY=0.933;entryDx=0;entryDy=0;entryPerimeter=0;" edge="1" parent="1" source="mCj7lZmTwDm9WnsvrkNn-7" target="mCj7lZmTwDm9WnsvrkNn-20">
          <mxGeometry relative="1" as="geometry">
            <Array as="points">
              <mxPoint x="1040" y="270" />
              <mxPoint x="1040" y="228" />
            </Array>
          </mxGeometry>
        </mxCell>
        <mxCell id="mCj7lZmTwDm9WnsvrkNn-7" value="自动发布" style="rounded=0;whiteSpace=wrap;html=1;" vertex="1" parent="1">
          <mxGeometry x="960" y="230" width="30" height="80" as="geometry" />
        </mxCell>
        <mxCell id="mCj7lZmTwDm9WnsvrkNn-9" style="edgeStyle=orthogonalEdgeStyle;rounded=0;orthogonalLoop=1;jettySize=auto;html=1;exitX=1;exitY=0.75;exitDx=0;exitDy=0;entryX=0;entryY=0.5;entryDx=0;entryDy=0;" edge="1" parent="1" source="mCj7lZmTwDm9WnsvrkNn-8" target="mCj7lZmTwDm9WnsvrkNn-6">
          <mxGeometry relative="1" as="geometry">
            <Array as="points">
              <mxPoint x="890" y="440" />
            </Array>
          </mxGeometry>
        </mxCell>
        <mxCell id="mCj7lZmTwDm9WnsvrkNn-40" style="edgeStyle=orthogonalEdgeStyle;rounded=0;orthogonalLoop=1;jettySize=auto;html=1;exitX=1;exitY=0.25;exitDx=0;exitDy=0;" edge="1" parent="1" source="mCj7lZmTwDm9WnsvrkNn-8">
          <mxGeometry relative="1" as="geometry">
            <mxPoint x="1107" y="163" as="targetPoint" />
            <Array as="points">
              <mxPoint x="890" y="163" />
            </Array>
          </mxGeometry>
        </mxCell>
        <mxCell id="mCj7lZmTwDm9WnsvrkNn-8" value="" style="rounded=0;whiteSpace=wrap;html=1;" vertex="1" parent="1">
          <mxGeometry x="660" y="140" width="230" height="520" as="geometry" />
        </mxCell>
        <mxCell id="mCj7lZmTwDm9WnsvrkNn-10" value="浏览器" style="rounded=0;whiteSpace=wrap;html=1;" vertex="1" parent="1">
          <mxGeometry x="1290" y="140" width="120" height="480" as="geometry" />
        </mxCell>
        <mxCell id="mCj7lZmTwDm9WnsvrkNn-12" value="资源访问" style="text;html=1;align=center;verticalAlign=middle;resizable=0;points=[];autosize=1;strokeColor=none;fillColor=none;" vertex="1" parent="1">
          <mxGeometry x="1170" y="158" width="70" height="30" as="geometry" />
        </mxCell>
        <mxCell id="mCj7lZmTwDm9WnsvrkNn-16" value="资源访问，SEO" style="text;html=1;align=center;verticalAlign=middle;resizable=0;points=[];autosize=1;strokeColor=none;fillColor=none;" vertex="1" parent="1">
          <mxGeometry x="1150" y="528" width="110" height="30" as="geometry" />
        </mxCell>
        <mxCell id="mCj7lZmTwDm9WnsvrkNn-20" value="编译发布" style="text;html=1;align=center;verticalAlign=middle;resizable=0;points=[];autosize=1;strokeColor=none;fillColor=none;" vertex="1" parent="1">
          <mxGeometry x="1040" y="200" width="70" height="30" as="geometry" />
        </mxCell>
        <mxCell id="mCj7lZmTwDm9WnsvrkNn-21" value="前端项目代码" style="text;html=1;align=center;verticalAlign=middle;resizable=0;points=[];autosize=1;strokeColor=none;fillColor=none;" vertex="1" parent="1">
          <mxGeometry x="725" y="98" width="100" height="30" as="geometry" />
        </mxCell>
        <mxCell id="mCj7lZmTwDm9WnsvrkNn-23" value="" style="edgeStyle=orthogonalEdgeStyle;rounded=0;orthogonalLoop=1;jettySize=auto;html=1;exitX=0.5;exitY=0;exitDx=0;exitDy=0;entryX=0.5;entryY=1;entryDx=0;entryDy=0;" edge="1" parent="1" source="mCj7lZmTwDm9WnsvrkNn-6" target="mCj7lZmTwDm9WnsvrkNn-19">
          <mxGeometry relative="1" as="geometry">
            <mxPoint x="975" y="400" as="sourcePoint" />
            <mxPoint x="975" y="310" as="targetPoint" />
          </mxGeometry>
        </mxCell>
        <mxCell id="mCj7lZmTwDm9WnsvrkNn-19" value="代码获取" style="text;html=1;align=center;verticalAlign=middle;resizable=0;points=[];autosize=1;strokeColor=none;fillColor=none;" vertex="1" parent="1">
          <mxGeometry x="940" y="340" width="70" height="30" as="geometry" />
        </mxCell>
        <mxCell id="mCj7lZmTwDm9WnsvrkNn-25" value="编译发布" style="text;html=1;align=center;verticalAlign=middle;resizable=0;points=[];autosize=1;strokeColor=none;fillColor=none;" vertex="1" parent="1">
          <mxGeometry x="1040" y="550" width="70" height="30" as="geometry" />
        </mxCell>
        <mxCell id="mCj7lZmTwDm9WnsvrkNn-26" value="埋点系统" style="rounded=0;whiteSpace=wrap;html=1;" vertex="1" parent="1">
          <mxGeometry x="705" y="520" width="120" height="25" as="geometry" />
        </mxCell>
        <mxCell id="mCj7lZmTwDm9WnsvrkNn-27" value="监控报警系统" style="whiteSpace=wrap;html=1;" vertex="1" parent="1">
          <mxGeometry x="705" y="550" width="120" height="30" as="geometry" />
        </mxCell>
        <mxCell id="mCj7lZmTwDm9WnsvrkNn-28" value="代码规范控制" style="whiteSpace=wrap;html=1;" vertex="1" parent="1">
          <mxGeometry x="705" y="585" width="120" height="30" as="geometry" />
        </mxCell>
        <mxCell id="mCj7lZmTwDm9WnsvrkNn-29" value="代码提交规范控制" style="whiteSpace=wrap;html=1;" vertex="1" parent="1">
          <mxGeometry x="705" y="620" width="120" height="30" as="geometry" />
        </mxCell>
        <mxCell id="mCj7lZmTwDm9WnsvrkNn-30" value="数据Mock" style="rounded=0;whiteSpace=wrap;html=1;" vertex="1" parent="1">
          <mxGeometry x="705" y="490" width="120" height="25" as="geometry" />
        </mxCell>
        <mxCell id="mCj7lZmTwDm9WnsvrkNn-31" value="图标库" style="rounded=0;whiteSpace=wrap;html=1;" vertex="1" parent="1">
          <mxGeometry x="705" y="427.5" width="120" height="25" as="geometry" />
        </mxCell>
        <mxCell id="mCj7lZmTwDm9WnsvrkNn-32" value="UI组件库" style="rounded=0;whiteSpace=wrap;html=1;" vertex="1" parent="1">
          <mxGeometry x="705" y="400" width="120" height="25" as="geometry" />
        </mxCell>
        <mxCell id="mCj7lZmTwDm9WnsvrkNn-33" value="CSS库" style="rounded=0;whiteSpace=wrap;html=1;" vertex="1" parent="1">
          <mxGeometry x="705" y="370" width="120" height="25" as="geometry" />
        </mxCell>
        <mxCell id="mCj7lZmTwDm9WnsvrkNn-34" value="状态管理" style="rounded=0;whiteSpace=wrap;html=1;" vertex="1" parent="1">
          <mxGeometry x="705" y="340" width="120" height="25" as="geometry" />
        </mxCell>
        <mxCell id="mCj7lZmTwDm9WnsvrkNn-35" value="路由管理" style="rounded=0;whiteSpace=wrap;html=1;" vertex="1" parent="1">
          <mxGeometry x="705" y="310" width="120" height="25" as="geometry" />
        </mxCell>
        <mxCell id="mCj7lZmTwDm9WnsvrkNn-36" value="渲染库" style="rounded=0;whiteSpace=wrap;html=1;" vertex="1" parent="1">
          <mxGeometry x="705" y="280" width="120" height="25" as="geometry" />
        </mxCell>
        <mxCell id="mCj7lZmTwDm9WnsvrkNn-38" value="手动打包" style="text;html=1;align=center;verticalAlign=middle;resizable=0;points=[];autosize=1;strokeColor=none;fillColor=none;" vertex="1" parent="1">
          <mxGeometry x="980" y="138" width="70" height="30" as="geometry" />
        </mxCell>
      </root>
    </mxGraphModel>
  </diagram>
</mxfile>
